<?xml version="1.0" encoding="utf-8"?>
<!-- Generator: Adobe Illustrator 14.0.0, SVG Export Plug-In . SVG Version: 6.00 Build 43363)  -->
<!DOCTYPE svg PUBLIC "-//W3C//DTD SVG 1.1//EN" "http://www.w3.org/Graphics/SVG/1.1/DTD/svg11.dtd">
<svg version="1.1" id="Layer_1" xmlns="http://www.w3.org/2000/svg" xmlns:xlink="http://www.w3.org/1999/xlink" x="0px" y="0px"
	 width="1304px" height="767px" viewBox="0 0 1304 767" enable-background="new 0 0 1304 767" xml:space="preserve">
<g>
	<defs>
		<rect id="SVGID_1_" width="1304" height="767"/>
	</defs>
	<clipPath id="SVGID_2_">
		<use xlink:href="#SVGID_1_"  overflow="visible"/>
	</clipPath>
	<rect x="377.06" y="129" clip-path="url(#SVGID_2_)" fill="" width="1303.94" height="766.94"/>
	<path clip-path="url(#SVGID_2_)" fill="#EBC209" d="M515.18,225.11c1.82-3.79,6.461-4.3,10.03-5.57
		c7.729-0.45,15.63,0.79,22.83,3.69c-0.46,2.01-0.75,4.14-1.92,5.9c-4.19,5.73-9.45,10.56-14.771,15.22
		c-5.689,5.04-10.08,11.29-14.83,17.17c-5.81,7.32-11.42,14.82-16.22,22.84c-7.229,11.84-16.5,22.21-24.399,33.58
		c-4.541,6.45-10.09,12.201-13.771,19.23c-7.67,14.551-15.521,29.439-18.12,45.88c-1.72,10.681-4.869,21.11-5.9,31.9
		c2.211-2.03,4.371-4.12,6.431-6.3c3.55-3.851,7.89-6.841,11.54-10.591c5.16-5.51,10.99-10.329,16.57-15.409
		c5.33-4.301,9.59-9.771,15-13.98c13.859-10.359,24.72-23.98,37.38-35.641c11.38-9.979,23.56-19.029,34.61-29.379
		c10.609-8.11,17.459-19.83,26.869-29.14c16.82-15.51,28.561-36.05,47.42-49.43c8.881-5.14,19.58-1.78,28.91,0.24
		c-0.21,1.9-0.2,3.88-0.89,5.69c-5.11,6.83-11.33,12.771-16.101,19.87c-13.359,16.56-29.8,30.2-45.119,44.86
		c-5.311,4.89-8.75,11.29-12.95,17.07c-10.9,15.76-19.49,33.28-24.21,51.89c-3.2,11.521-3.551,23.53-4.851,35.35
		c-0.59,5.99-1.37,11.98-1.579,18c2.02-1.7,3.939-3.52,5.92-5.28c4.539-3.739,9.739-6.619,13.949-10.779
		c7.561-7.21,16.57-12.65,24.25-19.73c11.74-8.439,22.69-17.92,33.631-27.369c5.75-6.341,13.01-10.971,19.359-16.631
		c5.71-5.99,12.87-10.43,18.04-16.95c3.46-4.53,7.68-8.49,12.56-11.46c4.29-2.53,9.46-1.47,14.19-1.45
		c4.45,0.23,9.59-0.19,13.3,2.67c0.101,2-0.08,4.13-1.229,5.83c-5.811,7.25-13.63,12.54-19.46,19.741
		c-4.24,6.479-8.061,13.209-12.351,19.659c-5.649,10.13-13.39,18.931-18.67,29.29c-3.439,7.09-7.71,13.73-11.43,20.68
		c-3.38,6.131-7.91,11.641-10.271,18.311c4.711-2.66,9.051-5.93,12.971-9.64c7.84-6.61,16.68-11.891,24.46-18.58
		c6.069-5.311,12.909-9.67,18.8-15.19c4.08-4,9.04-6.9,13.3-10.68c11.19-10.52,23.771-19.52,34.18-30.86
		c3.24-3.479,7.391-5.899,10.9-9.069c8.44-8.261,17.46-15.9,26.2-23.84c1.33-1.48,3.29-1.98,5.22-2.08
		c15.57-0.98,30.9,2.68,45.771,6.93c5.699,1.42,11.38,2.98,16.93,4.94c4.08,1.56,7.93,5.34,7.72,10
		c-3.16,11.62-10.21,21.49-16.71,31.41c1.4,1.471,2.79,2.971,4.3,4.34c0.96,0.9,1.96,1.78,2.95,2.68
		c7.26-4.119,14.66-7.989,21.9-12.14c5.279-4.3,11.77-6.68,17.18-10.8c6.95-4.93,14.02-9.891,19.67-16.34
		c5.83-6.85,13.47-11.85,19.36-18.65c2.12-2.17,4.42-5.34,7.899-4.3c5.79,0.91,11.771,0.5,17.46,2.11
		c2.771,0.77,2.74,4.11,1.33,6.11c-6.39,9.16-11.979,18.95-19.569,27.22c-6.551,6.779-10.521,15.47-15.841,23.17
		c-4.47,6.38-8.029,13.3-12.09,19.93c-4.67,7.84-8.41,16.18-12.85,24.14c-2.46,4.471-4.8,9.051-6.09,14.021
		c3.1-1.47,6.18-3.061,8.84-5.24c6.25-4.83,13.229-8.66,19.26-13.8c4.79-3.89,9.54-7.86,14.55-11.48
		c5.561-4.02,10.38-8.93,15.801-13.13c11.76-9.15,21.43-20.609,32.989-29.99c5.21-3.74,10.21-7.779,14.811-12.26
		c6.16-6.18,13.38-11.24,19.17-17.82c4.33-4.65,8.58-9.85,14.45-12.58c6.779-0.96,13.63,0.93,20.109,2.86
		c2.84,0.81,4.93,3.01,6.801,5.18c-0.351,0.47-1.07,1.42-1.421,1.89c-2.88,3.65-5.75,7.3-8.64,10.94
		c-5.18,6.491-12.37,10.98-17.56,17.459c-6.391,7.32-11.94,15.32-18.521,22.48c-8.24,9.471-16.75,18.74-23.84,29.14
		c-7.72,11.21-16.54,21.62-24.23,32.841c7.37-5.21,14.561-10.71,21.311-16.721c9.68-6.949,18.72-14.77,28.64-21.38
		c10.61-8.01,21.24-16,31.45-24.521c4.41-3.26,8.6-6.819,13.189-9.84c5.011-3.26,9.25-7.529,14.341-10.67
		c7.84-5.049,15.43-10.49,23.18-15.669c12.07-6.86,23.07-15.56,35.72-21.39c4.811-2.17,9.771-4.79,15.25-3.98
		c-0.8,4.89-5.34,7.46-9.069,10.01c-27.99,15.28-51.7,36.82-76.38,56.71c-18.101,14.14-34.811,29.939-52.73,44.3
		c-8.83,8.24-18.63,15.32-27.78,23.17c-5.35,4.35-10.59,8.85-16.25,12.79c-4.89,3.34-8.83,7.85-13.689,11.23
		c-7.431,4.77-13.41,11.42-20.82,16.21c-8,5.18-14.49,12.189-21.24,18.819c-5.029,4.75-8.649,10.7-12.97,16.05
		c-4.33,5.33-8.18,11.061-12.85,16.12c-6.11,6.63-11.04,14.25-17.221,20.83c-5.13,5.311-8.85,11.74-13.649,17.32
		c-5.4,6.34-10.311,13.07-15.19,19.81c-1.49,2.091-3.47,4.181-6.21,4.301c-9.18,0.92-18.36-0.4-27.51-0.971
		c-1.99-3.58-4.061-7.12-6.26-10.56c-1.311-2.19-2.29-4.59-2.82-7.08c-0.65-2.09,1.63-3.37,2.71-4.82
		c8.16-8.08,18.41-13.54,27.45-20.51c13.16-11.85,27.189-22.76,39.49-35.53c5.09-5.609,11.31-9.979,16.67-15.31
		c5.33-4.05,8.85-9.811,13.29-14.72c8.92-10.79,17.949-21.49,26.239-32.78c7.21-9.2,14.75-18.2,20.761-28.26
		c5.25-6.86,10.71-13.61,15.189-21c-9.56,6-17.939,13.72-27.56,19.64c-6.2,3.67-11.87,8.15-17.9,12.09
		c-5.47,3.59-10.33,8.351-16.63,10.5c-3.75,1.28-7.65-0.09-11.37-0.75c-5.41-1.03-10.66-2.76-15.71-4.91
		c-1.77-3.79-3.38-7.939-2.46-12.18c1.65-7.2,5.21-13.74,8.47-20.31c4.07-7.46,7.62-15.181,11.42-22.78
		c3-3.93,5.601-8.18,7.29-12.85c-8,2.77-14.84,7.84-21.979,12.229c-3.521,2.29-7.891,1.25-11.72,0.54
		c-7.29-1.58-14.25-4.34-21.11-7.2c-5.61,6.771-11.271,13.54-15.94,21.01c-4.93,7.53-10.779,14.44-17.489,20.45
		c-6.341,7.65-13.301,14.74-20.45,21.63c-3.03,2.67-6.24,5.49-10.22,6.53c-8.75,1.39-17.48-0.66-26.061-2.2
		c-6.58-1.29-9.66-8.04-12.67-13.3c-4.67-8.73-6.41-18.5-8.75-27.99c-0.69-2.63-1.34-5.26-2.01-7.88
		c-11.15,7-20.641,16.3-31.83,23.24c-7.36,5.32-14.55,10.88-22.07,15.97c-7.59,6.75-15.8,12.811-22.92,20.08
		c-9.22,8.771-18.4,17.6-26.96,27.021c-3.69,3.68-7.71,7.159-10.229,11.81c-14.891,26.52-34.24,50.19-49.59,76.42
		c-1.91,2.94-4.201,6.21-7.801,7.09c-9.05,1.79-18.47,1.82-27.51-0.05c-3.28-1.6-5.09-5.13-7.29-7.91
		c-1.36-2.439-2.67-4.99-3.3-7.72c0.4-8.18,7.63-13.14,12.5-18.83c9.63-8.38,18.32-17.86,28.68-25.37c3.43-2.89,6.37-6.34,10.1-8.89
		c4.561-3.01,7.99-7.32,12.09-10.88c4.121-3.86,9.24-6.94,11.841-12.15c6.76-12.84,13.53-25.67,20.81-38.22
		c5.26-8.28,9.551-17.12,14.32-25.67c4.59-7.771,9.15-15.551,13.71-23.33c3.08-4.7,5.66-9.73,7.72-14.961
		c-10.71,7.021-20.76,14.98-30.82,22.881c-8.22,5.689-16.18,11.74-23.619,18.399c-6.971,5.311-12.73,12.061-20.051,16.91
		c-3.399,2.19-6.319,5.011-9.47,7.511c-1,0.859-2.3,1.239-3.6,1.14c-5.931-0.05-11.64-1.83-17.44-2.8
		c-0.77-0.141-2.29-0.431-3.06-0.57c0.08-17.17,3.69-34.07,4.13-51.21c0.529-12.351,3.55-24.431,7.189-36.181
		c1.761-4.359,3.25-8.84,4.25-13.43c-7.279,5.141-12.949,12.131-19.899,17.65c-7.24,5.75-13.69,12.42-21.04,18.02
		c-15.66,13.65-28.41,30.24-44,43.96c-6.03,5-10.2,11.79-16.12,16.881c-4.94,3.439-9.87,8.119-16.239,8.22
		c-5.531-0.22-11.061-0.601-16.57-1.101c-1.61-0.229-2.61-1.75-2.74-3.27c-1.34-21.99,5.199-43.3,8.619-64.79
		c1.66-4.43,3.131-8.93,4.141-13.561c-6.29,4.541-11.68,10.131-17,15.73c-9.78,9.94-20.49,18.91-31.19,27.83
		c-5.66,5.38-11.53,10.54-17.78,15.22c-8.53,6.4-15.77,14.471-25.02,19.92c-5.1,3.41-11.35,3.95-17.25,4.801
		c-5.19,0.699-10.51,0-15.39-1.87c-0.48-0.181-1.45-0.53-1.93-0.7c0.04-5.33-0.42-10.75,0.97-15.95c1.7-6.85,3.06-13.82,5.49-20.46
		c2.78-5.69,5.3-11.5,8.07-17.2c-11.77,9.63-22.56,20.38-33.97,30.431c-5.84,5.34-13.26,8.529-19.04,13.949
		c-3.16,2.94-6.57,5.681-10.49,7.551c-8.12,4.399-17.64,4.579-26.64,5.06c-4.79,0.46-8.53-3.05-11.13-6.64
		c-8.88-11.75-16.73-24.24-24.03-37.03c-3.61-6.04-7.5-11.93-11.93-17.41c-8.17,5.72-16.42,11.71-22.46,19.771
		c-6.9,9.04-15.2,16.869-22.19,25.829c-4.58,6.011-9.6,11.721-15.02,16.971c-5.21,1.97-10.95,1.779-16.36,2.96
		c-2.38,0.62-4.8,0.09-7.14-0.431c2.08-4.399,5.24-8.14,7.76-12.279c7.82-12.66,14.21-26.15,22.34-38.62
		c3.01-5.14,5.08-10.76,8.19-15.84c7.21-11.28,12.78-23.54,20.58-34.45c7.24-11.82,16.23-22.42,24.33-33.64
		c5.41-8.48,11.76-16.32,17.24-24.76c2.38-3.12,4.56-6.4,6.34-9.9c-6.11,0.44-11.69,3.21-16.72,6.52
		c-10.87,7.39-22.03,14.41-33.95,19.98c-8.46,4.18-16.75,8.67-25.19,12.87c-7.9,4.41-15.89,8.8-24.55,11.56
		c-3.83,1.58-7.99,1.46-12.02,1c0.95-1.96,1.86-4.11,3.79-5.31c9.25-6.15,19.6-10.29,29.18-15.84c10.14-5.24,19.17-12.25,29-18
		c6.7-3.8,12.25-9.25,18.99-12.99c8.28-5.75,16.43-11.69,24.95-17.09c4.95-2.91,8.59-7.46,13.32-10.64
		c4.29-2.99,7.86-6.91,12.26-9.76c5.26-3.36,10.12-7.29,15.41-10.61c3.92-2.43,7.04-6.59,11.89-7.15
		c6.46-1.19,13.12-1.96,19.67-1.15c3.68,0.24,3.09,4.57,2.86,7.18c-3.61,5.48-7.83,10.52-11.92,15.65
		c-5,6.18-8.32,13.51-13.34,19.67c-4.51,5.5-8.66,11.28-13.36,16.63c-4.86,5.54-8.77,11.83-13.57,17.42
		c-6.65,7.71-13.17,15.54-19.6,23.43c-7.1,10.161-14.52,20.1-22.04,29.959c-5.2,7.92-9.9,16.17-14.65,24.371
		c4.87-2.15,8.93-5.601,13.01-8.94c14.24-8.49,26.27-20.28,40.92-28.149c7.68-4.761,15.18-9.861,23.45-13.58
		c4.4-1.891,8.52-4.44,13.07-6.011c6.34-2,12.16-5.32,18.46-7.43c7.04-2.81,14.66-3.32,21.97-5.03c2.86-0.81,5.54,0.86,8.13,1.81
		c-0.44,1.55-0.94,3.08-1.51,4.59c-3.11,5.46-8.06,9.57-11.3,14.949c-5.23,8.551-12.26,15.74-18.15,23.811
		c-6.61,7.92-13.17,16.63-22.73,21.15c-12.74,4.58-26.49,3.609-39.74,4.99c1.66,2.529,3.45,4.989,5.32,7.39
		c5.92,8.5,10.54,17.84,16.1,26.58c2.26,3.05,4.74,5.939,6.76,9.159c1.55,2.29,2.9,4.891,5.26,6.471
		c7.67-5.5,15.14-11.311,22.14-17.65c14.7-14.63,30.37-28.28,44.51-43.48c7.6-8.409,16.25-15.76,24.04-23.979
		c5.14-5.521,10.51-10.81,15.79-16.21c5.04-5.28,9.6-11.13,15.51-15.51c1.4-1.14,3.2-1.48,4.98-1.47
		c7.58-0.03,15.21-0.33,22.66,1.36c-0.09,2.21,0.79,4.95-1,6.69c-3.46,3.91-7.37,7.43-10.4,11.699
		c-5.55,7.381-9.17,15.971-14.47,23.521c-5.87,8.319-11.69,16.729-16.22,25.87c-4.7,8.95-10.83,17.24-13.99,26.939
		c-1.43,4.101-2.62,8.271-3.52,12.521c2.49-2.22,4.9-4.521,7.18-6.95c2.9-2.78,6.3-4.979,9.27-7.689
		c6.22-6.141,13.43-11.15,19.66-17.301c6.01-4.67,9.88-11.43,15.8-16.199c4.83-3.801,8.65-8.67,13.41-12.551
		c10.26-9.43,19.72-19.66,29.229-29.82c7.82-7.859,16.4-15,23.191-23.819c5.84-6.16,11.239-12.72,17.18-18.78
		c5.72-6.09,9.91-13.39,15.229-19.8c8.67-10.29,16.92-20.98,26.45-30.51C507.87,233.87,512.35,230.16,515.18,225.11"/>
	<path clip-path="url(#SVGID_2_)" fill="#605D4F" d="M546.12,229.13c1.31,0.14,2.62,0.27,3.94,0.41c0.39,0.61,1.17,1.85,1.549,2.46
		c-4.479,11.32-15.789,17.26-23.18,26.32c-8.32,10.39-16.8,20.72-23.85,32.04c-6.471,10.94-14.641,20.71-22.28,30.83
		c-3.159,4.48-6.34,8.96-9.829,13.201c-5.271,6.25-8.761,13.729-12.261,21.06c-6.431,11.78-11.28,24.569-13.17,37.91
		c-0.75,5.1-2.729,10.06-2.5,15.29c-2.06,2.18-4.22,4.27-6.431,6.3c1.031-10.79,4.181-21.22,5.9-31.9
		c2.6-16.44,10.45-31.329,18.12-45.88c3.681-7.029,9.229-12.78,13.771-19.23c7.899-11.37,17.17-21.74,24.399-33.58
		c4.8-8.02,10.41-15.52,16.22-22.84c4.75-5.88,9.141-12.13,14.83-17.17C536.67,239.69,541.93,234.86,546.12,229.13"/>
	<path clip-path="url(#SVGID_2_)" fill="#605D4F" d="M645.85,250.88c4.771-7.1,10.99-13.04,16.101-19.87
		c1.6,0.74,3.189,1.5,4.77,2.3c-1.47,8.9-9.81,13.78-14.439,20.89c-2.921,4.64-6.601,8.68-10.5,12.51
		c-9.64,11.35-21.22,20.8-31.88,31.14c-5.601,4.72-10.891,9.96-14.51,16.4c-14.761,20.109-26.07,43.16-30.551,67.83
		c-0.949,7.75-1.5,15.54-2.34,23.3c-0.2,2.47-0.57,5.07,0.561,7.39c-1.98,1.761-3.9,3.58-5.92,5.28c0.209-6.02,0.989-12.01,1.579-18
		c1.3-11.819,1.65-23.829,4.851-35.35c4.72-18.61,13.31-36.13,24.21-51.89c4.2-5.78,7.64-12.18,12.95-17.07
		C616.05,281.08,632.49,267.44,645.85,250.88"/>
	<path clip-path="url(#SVGID_2_)" fill="#605D4F" d="M266.41,231.85c1.04,0.28,2.07,0.57,3.11,0.84c0.1,2.37,0.36,4.76-0.01,7.12
		c-5.55,8.78-13.37,15.96-18.36,25.14c-3.92,7.19-9.64,13.1-14.45,19.67c-3.68,4.93-8.18,9.21-11.6,14.35
		c-6.18,9.02-14.05,16.7-20.61,25.43c-6.64,6.94-11.37,15.379-17.31,22.879c-5.51,7.531-11.65,14.601-16.24,22.761
		c-4.08,3.34-8.14,6.79-13.01,8.94c4.75-8.201,9.45-16.451,14.65-24.371c7.52-9.859,14.94-19.799,22.04-29.959
		c6.43-7.89,12.95-15.72,19.6-23.43c4.8-5.59,8.71-11.88,13.57-17.42c4.7-5.35,8.85-11.13,13.36-16.63
		c5.02-6.16,8.34-13.49,13.34-19.67C258.58,242.37,262.8,237.33,266.41,231.85"/>
	<path clip-path="url(#SVGID_2_)" fill="#EBC209" d="M714.45,263.2c7.649,1.77,15.49,2.01,23.29,2.28
		c-0.271,1.58-0.46,3.17-0.771,4.75c-2.09,4.38-4.83,9.17-9.72,10.82c-6.52,2.31-12.93,4.96-19.54,7.01c-1.47,0.41-3,0.05-4.47-0.02
		c-0.28-5.19,2.52-9.7,4.779-14.14C709.85,270.15,712.16,266.67,714.45,263.2"/>
	<path clip-path="url(#SVGID_2_)" fill="#EBC209" d="M389.67,269.64c1.25-1.57,2.78-3.96,5.12-3.33
		c7.36,2.04,14.979,2.92,22.55,3.83c-0.14,2.17-0.359,4.34-0.561,6.51c-3.35,3.14-7.629,5-12.049,6.06
		c-6.63,1.57-12.79,4.54-19.2,6.77c-1.45-1.05-2.88-2.12-4.29-3.21C383.67,280.55,386.33,274.88,389.67,269.64"/>
	<path clip-path="url(#SVGID_2_)" fill="#605D4F" d="M736.97,270.23c1.16,1.08,2.42,2.06,3.46,3.28c1.221,5.23-2.68,9.4-5.83,13.02
		c-2.89,2.07-6.47,2.82-9.729,4.11c-5.95,2.03-11.68,5.44-18.18,5.02c-0.41-2.6-0.261-5.25,1.02-7.6
		c6.61-2.05,13.021-4.7,19.54-7.01C732.14,279.4,734.88,274.61,736.97,270.23"/>
	<path clip-path="url(#SVGID_2_)" fill="#605D4F" d="M404.73,282.71c4.42-1.06,8.7-2.92,12.049-6.06
		c1.311,0.27,2.611,0.56,3.921,0.84c-0.28,3.48-0.3,8.32-4.15,9.83c-5.44,2.72-11.65,3.22-17.18,5.7
		c-4.42,1.74-9.12,4.62-13.96,2.58c-0.05-2.04,0-4.09,0.12-6.12C391.94,287.25,398.1,284.28,404.73,282.71"/>
	<path clip-path="url(#SVGID_2_)" fill="#605D4F" d="M180.8,287.8c5.03-3.31,10.61-6.08,16.72-6.52c-1.78,3.5-3.96,6.78-6.34,9.9
		c-10.98,6.44-21.31,13.98-32.48,20.13c-11.45,5.01-22.2,11.44-33.48,16.79c-11.18,6.24-23,12.93-36.11,13.221
		c-0.69-4.93,4.09-7.6,8-9.11c8.66-2.76,16.65-7.15,24.55-11.56c8.44-4.2,16.73-8.69,25.19-12.87
		C158.77,302.21,169.93,295.19,180.8,287.8"/>
	<path clip-path="url(#SVGID_2_)" fill="#605D4F" d="M1130.86,311.74c3.729-2.02,7.89-4,12.21-2.56c-0.51,1.66-0.69,3.59-2.08,4.8
		c-8.13,6.86-17.99,11.14-26.551,17.39c-8.39,5.479-15.93,12.11-24.039,17.96c-6.04,4.24-10.99,9.8-17.16,13.859
		c-9.79,8.601-20.32,16.301-30.08,24.94c-8.53,6.44-15.96,14.18-24.42,20.7c-5.471,5.26-11.79,9.51-17.311,14.7
		c-7.189,6.5-15.12,12.12-22.41,18.489c-6.27,5.141-12.439,10.421-19.14,14.99c-4.649,3.12-7.979,7.811-12.75,10.76
		c-6.57,3.681-11.479,9.57-17.649,13.811c-6.511,4.3-12.601,9.25-17.99,14.9c-3.891,4.119-8.38,7.699-11.721,12.31
		c-5.56,7.729-11.56,15.12-17.35,22.68c-8.37,8.391-14.51,18.66-22.84,27.101c-7.51,10.43-16.03,20.069-23.521,30.52
		c-2.42,2.96-4.239,7.23-8.43,7.92c-9.34,1.4-18.66-0.95-28.01-0.72c-2.851-6.32-7.38-11.78-9.51-18.42
		c2.199,3.439,4.27,6.979,6.26,10.56c9.149,0.57,18.33,1.891,27.51,0.971c2.74-0.12,4.72-2.21,6.21-4.301
		c4.88-6.739,9.79-13.47,15.19-19.81c4.8-5.58,8.52-12.01,13.649-17.32c6.181-6.58,11.11-14.2,17.221-20.83
		c4.67-5.06,8.52-10.79,12.85-16.12c4.32-5.35,7.94-11.3,12.97-16.05c6.75-6.63,13.24-13.64,21.24-18.819
		c7.41-4.79,13.39-11.44,20.82-16.21c4.859-3.381,8.8-7.891,13.689-11.23c5.66-3.94,10.9-8.44,16.25-12.79
		c9.15-7.85,18.95-14.93,27.78-23.17c17.92-14.36,34.63-30.16,52.73-44.3C1079.16,348.561,1102.87,327.02,1130.86,311.74"/>
	<path clip-path="url(#SVGID_2_)" fill="#605D4F" d="M931.15,338.15c7.59-8.271,13.18-18.061,19.569-27.22
		c1.641,0.93,3.49,1.72,4.69,3.26c-0.44,2.89-2.141,5.36-3.62,7.81c-5.69,8.45-11.05,17.21-18.07,24.67
		c-4.14,4.13-6.72,9.45-9.95,14.26c-4.109,7.01-9.279,13.37-12.899,20.68c-4.16,6.921-8.28,13.891-11.79,21.181
		c-1.97,3.8-3.62,7.78-5.96,11.38c-2.66,2.18-5.74,3.771-8.84,5.24c1.29-4.97,3.63-9.55,6.09-14.021
		c4.439-7.96,8.18-16.3,12.85-24.14c4.061-6.63,7.62-13.55,12.09-19.93C920.63,353.62,924.6,344.93,931.15,338.15"/>
	<path clip-path="url(#SVGID_2_)" fill="#605D4F" d="M1041,323.98c2.89-3.64,5.76-7.29,8.64-10.94c1.311,1.45,2.79,2.78,3.96,4.38
		c0.681,2.29-1.25,4.05-2.529,5.65c-3.66,4.08-6.551,8.8-10.48,12.63c-4.27,4.38-9.41,7.89-13.229,12.71
		c-3.66,4.35-7.38,8.65-10.761,13.22c-9.659,11.92-20.6,22.8-29.529,35.311c-3.15,3.949-5.54,8.46-8.91,12.239
		c-6.75,6.011-13.94,11.511-21.311,16.721c7.69-11.221,16.511-21.631,24.23-32.841c7.09-10.399,15.6-19.669,23.84-29.14
		c6.58-7.16,12.13-15.16,18.521-22.48C1028.63,334.96,1035.82,330.471,1041,323.98"/>
	<path clip-path="url(#SVGID_2_)" fill="#605D4F" d="M806.4,315.22c7.54,2.33,15.33,3.67,22.869,6c-0.279,2.06-0.63,4.12-1.13,6.14
		c-5.39-1.3-10.949-2.04-16.09-4.21C809.4,321.15,808,318.03,806.4,315.22"/>
	<path clip-path="url(#SVGID_2_)" fill="#605D4F" d="M284.13,331.189c3.24-5.379,8.19-9.489,11.3-14.949
		c1.48,0.83,2.98,1.62,4.48,2.42c-0.3,8.22-8.2,12.63-11.88,19.22c-3.99,6.82-9.12,12.851-14.28,18.8
		c-5.14,7.11-10.83,13.83-17.09,19.99c-4.61,4.37-10.2,7.99-16.62,8.82c-10.23,2.62-20.83,1.72-31.21,3.04
		c-1.87-2.4-3.66-4.86-5.32-7.39c13.25-1.381,27-0.41,39.74-4.99c9.56-4.521,16.12-13.23,22.73-21.15
		C271.87,346.93,278.9,339.74,284.13,331.189"/>
	<path clip-path="url(#SVGID_2_)" fill="#605D4F" d="M711.11,316.9c1.38-1.09,3.149,0.6,4.68,0.73c-0.25,2.47-0.11,5.21-1.87,7.19
		c-6,7.901-14.82,13.27-20.4,21.51c-3.76,6.79-8.279,13.1-12.229,19.779c-4.33,7.931-10.57,14.621-14.75,22.65
		c-3.08,4.95-5.16,10.471-8.46,15.3c-2.35,3.45-3.88,7.391-6.18,10.881c-3.92,3.71-8.26,6.979-12.971,9.64
		c2.36-6.67,6.891-12.18,10.271-18.311c3.72-6.949,7.99-13.59,11.43-20.68c5.28-10.359,13.021-19.16,18.67-29.29
		c4.29-6.45,8.11-13.18,12.351-19.659C697.48,329.439,705.3,324.15,711.11,316.9"/>
	<path clip-path="url(#SVGID_2_)" fill="#605D4F" d="M375.18,332.189c3.03-4.27,6.94-7.79,10.4-11.699
		c0.94,0.01,2.82,0.02,3.76,0.02c0.4,1.69,1.61,3.51,0.76,5.25c-1.82,3.77-5.32,6.27-7.95,9.42c-5.96,6.66-10.02,14.68-14.41,22.391
		c-6.89,10.89-14.96,21.09-20.47,32.819c-4.57,7.79-9.08,15.62-13.11,23.7c-2.28,2.43-4.69,4.73-7.18,6.95
		c0.9-4.25,2.09-8.42,3.52-12.521c3.16-9.699,9.29-17.989,13.99-26.939c4.53-9.141,10.35-17.551,16.22-25.87
		C366.01,348.16,369.63,339.57,375.18,332.189"/>
	<path clip-path="url(#SVGID_2_)" fill="#FEFEFE" d="M812.05,323.15c5.141,2.17,10.7,2.91,16.09,4.21
		c-2.12,4.34-4.189,8.73-6.79,12.81C817.88,334.71,814.65,329.08,812.05,323.15"/>
	<path clip-path="url(#SVGID_2_)" fill="#605D4F" d="M855.38,326.51c1.23,1.67,3.26,3.18,3.09,5.48c0.07,4.199-1.68,8.15-3.39,11.89
		c-3.12,6.39-6.62,12.74-11.311,18.11l-0.8,0.27c-1.51-1.369-2.899-2.869-4.3-4.34C845.17,348,852.22,338.13,855.38,326.51"/>
	<path clip-path="url(#SVGID_2_)" fill="#605D4F" d="M758.81,356.8c10.301-8.22,19.74-17.47,30.381-25.271
		c7.909,8.051,14.55,17.25,22.399,25.381c-0.42,0.561-1.25,1.689-1.67,2.26c-5.91-6.5-11.32-13.42-17.09-20.029
		c-11,7.369-20.2,16.989-30.64,25.069c-5.351,5.261-11.71,9.771-15.46,16.42c-3.44,6.13-2.62,13.62-0.591,20.08
		c2.271,6.67,4,13.521,6.101,20.25c-4.851-7.39-5.681-16.4-8.641-24.55c-2.56-6.86-4.229-14.85-1.06-21.801
		C745.99,367.1,753.07,362.4,758.81,356.8"/>
	<path clip-path="url(#SVGID_2_)" fill="#FEFEFE" d="M762.19,364.21c10.439-8.08,19.64-17.7,30.64-25.069
		c5.77,6.609,11.18,13.529,17.09,20.029c-4.78,7.95-10.7,15.09-16.22,22.52c-4.96,7.87-10.71,15.19-16.771,22.24
		c-7.31,7.7-13.84,16.15-21.859,23.17c-1.03-2.01-2.101-4.01-2.83-6.14c-2.101-6.729-3.83-13.58-6.101-20.25
		c-2.029-6.46-2.85-13.95,0.591-20.08C750.48,373.98,756.84,369.471,762.19,364.21"/>
	<path clip-path="url(#SVGID_2_)" fill="#605D4F" d="M526.12,358.08c6.95-5.52,12.62-12.51,19.899-17.65
		c-1,4.59-2.489,9.07-4.25,13.43c-8.189,9.801-19.14,16.761-28.26,25.641c-16.439,12.44-28.75,29.26-43.89,43.11
		c-5.61,5.399-11.38,10.67-16.181,16.83c-3.319,4.42-8.229,7.069-12.549,10.359c-3.15,2.19-7.051,3.13-10.861,2.76
		c-5.09-0.38-10.389,0.271-15.299-1.439c-2.91-1.061-2.121-4.67-2.58-7.061c5.51,0.5,11.039,0.881,16.57,1.101
		c6.369-0.101,11.299-4.78,16.239-8.22c5.92-5.091,10.09-11.881,16.12-16.881c15.59-13.72,28.34-30.31,44-43.96
		C512.43,370.5,518.88,363.83,526.12,358.08"/>
	<path clip-path="url(#SVGID_2_)" fill="#605D4F" d="M232.96,345.04c4.2-1.38,8.49-2.54,12.81-3.479
		c-1.96,3.859-4.59,7.439-7.97,10.17c-5.02,2.51-10.18,4.899-14.59,8.43c-4.77,3.73-9.67,7.29-14.92,10.311
		c-3.41,1.529-7.47,1.02-11.02,0.18c-0.13-0.381-0.38-1.141-0.51-1.521c3.5-2.62,7.09-5.101,10.55-7.76
		C216.08,356.26,223.27,348.58,232.96,345.04"/>
	<path clip-path="url(#SVGID_2_)" fill="#FEFEFE" d="M223.21,360.16c4.41-3.53,9.57-5.92,14.59-8.43
		c-2.53,5.76-7.86,9.539-12.19,13.879c-4.49,4.561-11.25,5.33-17.32,4.861C213.54,367.45,218.44,363.891,223.21,360.16"/>
	<path clip-path="url(#SVGID_2_)" fill="#605D4F" d="M405.17,378.17c5.32-5.6,10.71-11.189,17-15.73
		c-1.01,4.631-2.48,9.131-4.141,13.561c-6.639,6.73-13.209,13.55-20.169,19.96c-6.61,5.34-12.63,11.36-19.39,16.53
		c-6.68,6.7-14,12.71-21.59,18.33c-8.52,7.12-16.39,15.399-26.61,20.12c-9.8,2.76-20.64,4.25-30.32,0.21
		c-0.27-2.4-0.44-4.841-1.41-7.08c4.88,1.87,10.2,2.569,15.39,1.87c5.9-0.851,12.15-1.391,17.25-4.801
		c9.25-5.449,16.49-13.52,25.02-19.92c6.25-4.68,12.12-9.84,17.78-15.22C384.68,397.08,395.39,388.11,405.17,378.17"/>
	<path clip-path="url(#SVGID_2_)" fill="#605D4F" d="M862.66,378.54c7.14-4.39,13.979-9.46,21.979-12.229
		c-1.689,4.67-4.29,8.92-7.29,12.85c-2.619,1.49-5.34,2.8-7.81,4.529c-2.86,1.87-5.75,4.53-9.45,3.891
		c-9.47-0.93-18.33-4.721-27.14-8.051c-5.4,7.341-11.771,13.961-16.3,21.911c-4.49,6.109-8.881,12.489-14.801,17.319
		c-3.83,3.24-6.13,7.87-9.909,11.181c-6.221,5.729-11.421,12.67-18.62,17.26c-1.641,0.97-3.34,2.14-5.311,2.16
		c-5.34,0.109-10.79,0.71-15.96-0.96c-4.93-1.48-11.08-0.36-14.89-4.48c-4.58-5.189-7.59-11.55-10.16-17.92
		c3.01,5.26,6.09,12.01,12.67,13.3c8.58,1.54,17.311,3.59,26.061,2.2c3.979-1.04,7.189-3.86,10.22-6.53
		c7.149-6.89,14.109-13.979,20.45-21.63c6.71-6.01,12.56-12.92,17.489-20.45c4.67-7.47,10.33-14.239,15.94-21.01
		c6.86,2.86,13.82,5.62,21.11,7.2C854.77,379.79,859.14,380.83,862.66,378.54"/>
	<path clip-path="url(#SVGID_2_)" fill="#605D4F" d="M607.689,400.66c10.061-7.9,20.11-15.86,30.82-22.881
		c-2.06,5.23-4.64,10.261-7.72,14.961c-6.55,5.069-13.05,10.22-19.53,15.39c-8.32,5.58-16.17,11.8-23.68,18.41
		c-7.5,5.39-13.24,12.92-21.221,17.7c-3.739,2.1-6.399,5.569-9.89,7.979c-7.76,0.29-15.319-2.22-22.87-3.739
		c-0.039-2.23-0.06-4.44-0.09-6.66c5.801,0.97,11.51,2.75,17.44,2.8c1.3,0.1,2.6-0.28,3.6-1.14c3.15-2.5,6.07-5.32,9.47-7.511
		c7.32-4.85,13.08-11.6,20.051-16.91C591.51,412.4,599.47,406.35,607.689,400.66"/>
	<path clip-path="url(#SVGID_2_)" fill="#605D4F" d="M151.45,405.44c6.04-8.061,14.29-14.051,22.46-19.771
		c4.43,5.48,8.32,11.37,11.93,17.41c7.3,12.79,15.15,25.28,24.03,37.03c2.6,3.59,6.34,7.1,11.13,6.64c9-0.48,18.52-0.66,26.64-5.06
		c3.92-1.87,7.33-4.61,10.49-7.551c5.78-5.42,13.2-8.609,19.04-13.949c11.41-10.051,22.2-20.801,33.97-30.431
		c-2.77,5.7-5.29,11.51-8.07,17.2c-7.08,6.6-14.17,13.21-21.32,19.73c-6.6,6.319-15.31,9.829-21.73,16.35
		c-4.54,4.39-10.45,7.06-16.29,9.24c-6.55,0.91-13.1,2.109-19.74,2.2c-2.77,0.09-5.49-1.171-7.56-2.95
		c-5.51-5.65-9.5-12.511-14.03-18.92c-8.7-12.87-15.2-27.271-25.44-39.061c-4.89,3.181-9.45,6.83-13.95,10.53
		c-4.86,4.13-8.43,9.47-12.53,14.29c-7.5,8.49-15.43,16.649-22.1,25.85c-2.14,3.261-5.63,5.3-7.8,8.53
		c-1.18,1.64-2.42,3.67-4.7,3.75c-7.24,0.96-14.54,2.85-21.87,1.84c0.82-2.609,2.22-4.97,3.87-7.14
		c5.41-1.181,11.15-0.99,16.36-2.96c5.42-5.25,10.44-10.96,15.02-16.971C136.25,422.31,144.55,414.48,151.45,405.44"/>
	<path clip-path="url(#SVGID_2_)" fill="#605D4F" d="M684.41,413.37c11.189-6.94,20.68-16.24,31.83-23.24
		c0.67,2.62,1.319,5.25,2.01,7.88c-7.65,6.15-15.56,11.99-23.3,18.04c-5.101,3.48-10.33,6.8-15.12,10.73
		c-6.43,5.359-14.12,9.08-19.98,15.16c-10.699,8.51-20.609,17.97-30.209,27.699c-3.221,4.13-7.65,7.08-10.82,11.25
		c-4.23,5.091-10.021,8.87-13.09,14.88C591.88,520.56,573.92,542.7,559.21,566.94c-2.83,4.579-5.28,10.13-10.49,12.449
		c-9.579,1.891-19.569,1.42-29.17-0.159c-4.08-4.461-7.64-9.631-9.51-15.431c2.2,2.78,4.01,6.311,7.29,7.91
		c9.04,1.87,18.46,1.84,27.51,0.05c3.6-0.88,5.891-4.149,7.801-7.09c15.35-26.229,34.699-49.9,49.59-76.42
		c2.52-4.65,6.539-8.13,10.229-11.81c8.56-9.421,17.74-18.25,26.96-27.021c7.12-7.27,15.33-13.33,22.92-20.08
		C669.86,424.25,677.05,418.69,684.41,413.37"/>
	<path clip-path="url(#SVGID_2_)" fill="#605D4F" d="M921.53,417.5c9.62-5.92,18-13.64,27.56-19.64
		c-4.479,7.39-9.939,14.14-15.189,21c-3.58,2.939-7.601,5.239-11.54,7.64c-5.71,3.53-10.91,7.82-16.62,11.34
		c-6.101,4.11-11.84,10.271-19.61,10.57c-7.399-1.96-15.35-2.47-22.11-6.34c-2.119-2.061-2.84-5.061-4.1-7.641
		c5.05,2.15,10.3,3.88,15.71,4.91c3.72,0.66,7.62,2.03,11.37,0.75c6.3-2.149,11.16-6.91,16.63-10.5
		C909.66,425.65,915.33,421.17,921.53,417.5"/>
	<path clip-path="url(#SVGID_2_)" fill="#605D4F" d="M530.54,549.63c2.63-2.979,6.24-4.82,9.72-6.61
		c-2.9,4.48-5.699,9.28-10.14,12.421C530.1,553.52,528.97,551.21,530.54,549.63"/>
	<path clip-path="url(#SVGID_2_)" fill="#605D4F" d="M814,566.07c2.5-2.95,6.01-4.771,9.48-6.311c-2.521,4.38-5.631,8.4-9.03,12.13
		C813.86,570.05,812.43,567.82,814,566.07"/>
	<path display="none" clip-path="url(#SVGID_2_)" fill="#605D4F" d="M223.28,613.88c0.56-1.89,1.83-3.41,3.07-4.89
		c4.87,10.18,7.4,21.31,11.45,31.84c1.19,2.99,3.67,5.15,5.65,7.61c-4.09,0.92-8.3,1.069-12.44,0.479
		c0.86-1.67,1.87-3.25,2.59-4.979c-0.2-2.9-1.42-5.61-2.59-8.221c-3.76-0.75-7.62-0.27-11.42-0.37c-1.06,2.7-2.69,5.42-2.4,8.44
		c0.36,1.71,1.22,3.27,1.81,4.93c-3.48,0.04-6.95,0.04-10.42-0.189c2-2.55,4.53-4.83,5.5-8.03
		C217.16,631.63,220.28,622.78,223.28,613.88"/>
	<path display="none" clip-path="url(#SVGID_2_)" fill="#605D4F" d="M288.33,618.99c-0.12-4.29,3.79-7.74,7.77-8.46
		c3.02-0.21,6.13-0.38,9.1,0.279c2.36,2.051,1,5.86,1.14,8.62c-2.68-2.06-4.14-6.81-8.19-6.189c-4.03,0.21-7.4,4.819-5.39,8.609
		c3.84,5.78,12.14,6.41,15.55,12.591c0.8,3.909,1.02,8.739-2.25,11.64c-3.87,4.42-10.3,3.8-15.55,3.16
		c-3.71-1.71-2.79-6.681-3.17-10.01c0.86,0.1,1.72,0.22,2.59,0.34c0.92,2.46,1.72,5.35,4.21,6.699c4.44,2.051,11.18-1.989,10.2-7.09
		c-2.6-6.279-10.4-7.069-14.34-12.14C287.79,624.97,288.31,621.7,288.33,618.99"/>
	<path display="none" clip-path="url(#SVGID_2_)" fill="#605D4F" d="M515.33,610.74c3.75,0.02,7.51,0.02,11.27,0.01
		c-0.039,0.84-0.069,1.69-0.09,2.54c-1.39,0.64-2.779,1.29-4.14,1.97c-0.03,7.91-0.04,15.82-0.011,23.74
		c0,3.71,0.371,7.56-1.039,11.1c-5.28-4.25-8.95-10.02-13.36-15.08c-4.431-5.06-8.16-10.76-13.181-15.279
		c-0.02,8.37-0.84,16.85,0.671,25.14c1.29,0.67,2.59,1.33,3.909,1.99c0,0.77,0,1.55,0.021,2.33c-4.021,0.08-8.04,0.04-12.06,0.09
		c0.029-0.88,0.07-1.75,0.109-2.6c1.36-0.53,2.711-1.061,4.08-1.57c0.131-9.771,0.48-19.61-0.119-29.36
		c-1.75-1.18-3.69-2.04-5.531-3.05c2.461-1.85,5.73-1.63,8.591-1.04c4.19,3.811,7.229,8.7,11.05,12.87
		c4.68,5.14,8.47,11.11,13.84,15.6c0.37-7.06,0.21-14.14,0.19-21.21c0.35-2.729-2.08-4.38-4.03-5.72
		C515.439,612.38,515.38,611.55,515.33,610.74"/>
	<path display="none" clip-path="url(#SVGID_2_)" fill="#605D4F" d="M578.21,614.38c7.09-5.83,17.12-4.54,25.17-1.63
		c0.521,2.79,0.96,5.61,1.101,8.46c-0.521,0.09-1.561,0.26-2.09,0.34c-1.591-2.62-2.771-5.92-5.791-7.22
		c-5.52-2.65-12.34-0.45-16.16,4.11c-6.209,7-5.409,19.35,2.15,25.119c4.301,3.57,10.93,4.471,15.76,1.45
		c0.57-2.92,0.58-5.97,0.061-8.88c-1.36-1.26-2.88-2.32-4.311-3.47c4.33-1.2,8.881-1.141,13.271-0.271
		c-1.24,1.54-2.72,2.92-3.65,4.69c-0.489,3.35,0.11,6.729,0.69,10.04c-6.01,2.35-12.561,3.16-18.94,2.13
		c-6.1-1.5-11.35-6.07-13.28-12.09C570.08,629.29,571.33,619.59,578.21,614.38"/>
	<path display="none" clip-path="url(#SVGID_2_)" fill="#605D4F" d="M799.6,610.86c4.66-0.971,9.86-0.83,14.04,1.72
		c7.641,4.25,11.37,14.07,9.051,22.41c-1.29,6.18-5.82,11.529-11.71,13.819c-7.721,2.53-17.141,0.061-21.521-7.1
		c-3.65-4.729-3.45-10.95-2.85-16.58C787.98,618.52,793.09,612.81,799.6,610.86"/>
	<path display="none" clip-path="url(#SVGID_2_)" fill="#605D4F" d="M883.45,610.92c4.67-1,9.95-0.99,14.17,1.57
		c6.06,3.49,10.25,10.42,9.77,17.51c0.44,7.33-3.989,14.45-10.319,17.95c-3.88,2.22-8.561,1.79-12.83,1.399
		c-8.42-2.159-14.49-10.71-13.95-19.359C869.95,621.68,875.56,613.55,883.45,610.92"/>
	<path display="none" clip-path="url(#SVGID_2_)" fill="#605D4F" d="M990.61,611.46c3.02-0.06,6.04-0.05,9.069,0.04
		c-0.13,0.4-0.39,1.2-0.51,1.6c-1.49,1.04-4.189,1.61-3.81,3.95c-0.03,9.09-0.061,18.19,0.279,27.29
		c1.94,1.25,3.88,2.521,5.761,3.92c-4.96,1.45-10.19,1.21-15.24,0.55c0.13-0.47,0.399-1.409,0.53-1.88
		c1.43-1.13,3.979-1.71,3.869-3.97c0.04-7.03,0.24-14.09-0.329-21.1c-6.011,8.689-8.341,19.39-14.23,28.18
		c-5.92-8.86-8.94-19.26-14.3-28.42c-0.311,4.45-0.01,8.93-0.55,13.37c-0.261,2.319-0.71,4.689-0.23,7.029
		c0.53,2.62,2.7,4.391,4.24,6.44c-4.23,0.89-8.63,1.19-12.83,0.04c0.29-2.84,4.64-2.61,5.36-5.29
		c0.989-3.65,0.449-7.479,0.579-11.21c-0.13-5.16,0.591-10.35-0.02-15.48c-1.04-1.789-2.48-3.319-3.62-5.01
		c2.46-0.12,4.95-0.31,7.43-0.029c5.801,9.279,8.881,20.079,14.78,29.34C981.73,631.18,985.84,621.16,990.61,611.46"/>
	<g display="none" clip-path="url(#SVGID_2_)">
		<path display="inline" fill="none" d="M138.43,611.26c10.4,0.49,20.82-0.13,31.22,0.34c-0.01,2.36,840.911-114.97,840.85-112.6
			c-0.561,0-842.64,119.71-843.2,119.71c-0.63-1.41-1.26-2.81-1.9-4.2c-3.03-0.04-6.07-0.06-9.11,0.021
			c0.01,9.84-0.01,19.68,0.01,29.52c1.54,1.53,3.03,3.15,4,5.13c-4.51,0.141-9.03,0.12-13.54-0.029c1.52-2.82,4.92-4.83,4.73-8.33
			c0.15-8.78,0.03-17.57,0.02-26.351c-2.92,0.07-5.94-0.39-8.79,0.37c-1.5,1.391-2.65,3.09-3.99,4.641
			C136.72,617.04,137.7,613.96,138.43,611.26"/>
		<g display="inline">
		</g>
	</g>
	<path display="none" clip-path="url(#SVGID_2_)" fill="#605D4F" d="M354.23,611.24c10.38,0.42,20.77,0.14,31.15,0.16
		c0.13,2.58,0.32,5.189-0.08,7.77c-2.41,0.59-3.1-3.3-4.6-4.689c-2.82-0.021-5.63-0.03-8.45-0.04c-0.03,10.01-0.11,20.01,0.05,30.02
		c1.4,1.31,2.78,2.67,4.1,4.08c-4.52,1.21-9.18,0.51-13.73-0.1c2.07-2.2,4.75-4.33,4.67-7.66c0.29-8.74,0.05-17.49,0.08-26.23
		c-2.67-0.069-5.36-0.28-8.01,0.05c-2.25,1.33-3.77,3.561-5.71,5.271C353.21,616.98,353.17,614,354.23,611.24"/>
	<path display="none" clip-path="url(#SVGID_2_)" fill="#605D4F" d="M429.689,611.5c4.17-0.2,8.36-0.24,12.541,0
		c-1.291,2.13-4.08,3.7-3.851,6.48c-0.069,8.649-0.021,17.31,0.03,25.96c1.51,1.56,2.939,3.239,3.84,5.25
		c-4.48,0.109-8.971,0.109-13.45-0.061c1.47-2.76,4.921-4.6,4.64-8.06c0.121-7.38,0.09-14.761,0.031-22.13
		C433.63,615.93,431.08,613.87,429.689,611.5"/>
	<path display="none" clip-path="url(#SVGID_2_)" fill="#605D4F" d="M708.47,611.44c5.521-0.091,11.05-0.261,16.57-0.03
		c3.62,0.1,7.22,2.439,8.5,5.85c0.39,2.681,0.6,5.561-0.26,8.17c-1.44,2.19-3.53,3.82-5.42,5.59c2.109,3.511,4.359,6.95,6.97,10.12
		c2.24,2.721,5.22,4.69,7.58,7.301c-2.83,0.01-6.061,1-8.67-0.261c-4.74-5.05-7.73-11.439-12.141-16.75c-1.42,0-2.83,0-4.229,0.011
		c-0.061,4.31-0.59,8.699,0.16,12.979c1.18,1.45,2.55,2.75,3.819,4.15c-4.56,0.21-9.119,0.21-13.67,0.029
		c1.86-2.279,4.96-4.22,4.74-7.529c0.07-7.051,0.021-14.09,0.021-21.141C712.8,616.52,710.06,614.11,708.47,611.44"/>
	<path display="none" clip-path="url(#SVGID_2_)" fill="#FEFEFE" d="M801.5,613.53c3.34-0.83,7,0.029,9.56,2.35
		c6.24,5.101,7.931,14.09,5.99,21.61c-1.859,6.12-8.42,10.88-14.88,8.92c-7.99-2.96-11.66-12.44-10.58-20.44
		C792.18,620.42,795.99,615.05,801.5,613.53"/>
	<path display="none" clip-path="url(#SVGID_2_)" fill="#FEFEFE" d="M885.49,613.56c5.22-1.52,10.37,1.78,13.109,6.08
		c3.28,4.45,3.4,10.13,3.03,15.42c-0.46,7.021-7.43,13.24-14.6,11.511c-7.88-2.141-11.641-11.061-11.54-18.601
		C875.6,621.84,879.37,615.35,885.49,613.56"/>
	<path display="none" clip-path="url(#SVGID_2_)" fill="#FEFEFE" d="M717.27,614.29c3.2,0.229,7.08-0.71,9.521,1.97
		c2.31,1.84,2.14,5.08,1.67,7.7c-1.93,4.25-7.01,5.021-11.17,4.82C717.18,623.95,717.19,619.12,717.27,614.29"/>
	<path display="none" clip-path="url(#SVGID_2_)" fill="#FEFEFE" d="M220.99,632.11c0.81-4.42,2.21-8.771,4.62-12.58
		c1.65,4.1,3,8.33,4.17,12.6C226.85,632.18,223.92,632.18,220.99,632.11"/>
</g>
</svg>
